<mxfile host="app.diagrams.net" modified="2024-03-06T13:23:04.256Z" agent="Mozilla/5.0 (Windows NT 10.0; Win64; x64) AppleWebKit/537.36 (KHTML, like Gecko) Chrome/122.0.0.0 Safari/537.36" etag="BmU368FGnDGEZliffSG9" version="24.0.1" type="device">
  <diagram name="Page-1" id="npPSmrTGSY_UpYxPyurs">
    <mxGraphModel dx="1784" dy="1634" grid="1" gridSize="10" guides="1" tooltips="1" connect="1" arrows="1" fold="1" page="1" pageScale="1" pageWidth="850" pageHeight="1100" math="0" shadow="0">
      <root>
        <mxCell id="0" />
        <mxCell id="1" parent="0" />
        <mxCell id="ynz61ijYo75MXlib09TW-1" value="&lt;font style=&quot;font-size: 18px;&quot;&gt;Header&lt;/font&gt;" style="rounded=0;whiteSpace=wrap;html=1;" vertex="1" parent="1">
          <mxGeometry x="330" y="-100" width="170" height="50" as="geometry" />
        </mxCell>
        <mxCell id="ynz61ijYo75MXlib09TW-16" style="edgeStyle=orthogonalEdgeStyle;rounded=0;orthogonalLoop=1;jettySize=auto;html=1;exitX=0.5;exitY=1;exitDx=0;exitDy=0;" edge="1" parent="1" source="ynz61ijYo75MXlib09TW-2" target="ynz61ijYo75MXlib09TW-4">
          <mxGeometry relative="1" as="geometry" />
        </mxCell>
        <mxCell id="ynz61ijYo75MXlib09TW-17" style="edgeStyle=orthogonalEdgeStyle;rounded=0;orthogonalLoop=1;jettySize=auto;html=1;exitX=0.5;exitY=1;exitDx=0;exitDy=0;" edge="1" parent="1" source="ynz61ijYo75MXlib09TW-2" target="ynz61ijYo75MXlib09TW-3">
          <mxGeometry relative="1" as="geometry" />
        </mxCell>
        <mxCell id="ynz61ijYo75MXlib09TW-19" style="edgeStyle=orthogonalEdgeStyle;rounded=0;orthogonalLoop=1;jettySize=auto;html=1;exitX=0.5;exitY=1;exitDx=0;exitDy=0;" edge="1" parent="1" source="ynz61ijYo75MXlib09TW-2" target="ynz61ijYo75MXlib09TW-7">
          <mxGeometry relative="1" as="geometry" />
        </mxCell>
        <mxCell id="ynz61ijYo75MXlib09TW-2" value="&lt;font style=&quot;font-size: 18px;&quot;&gt;PostItem&lt;/font&gt;" style="rounded=0;whiteSpace=wrap;html=1;" vertex="1" parent="1">
          <mxGeometry x="380" y="100" width="170" height="50" as="geometry" />
        </mxCell>
        <mxCell id="ynz61ijYo75MXlib09TW-3" value="&lt;font style=&quot;font-size: 18px;&quot;&gt;PostContent&lt;/font&gt;" style="rounded=0;whiteSpace=wrap;html=1;" vertex="1" parent="1">
          <mxGeometry x="590" y="280" width="170" height="50" as="geometry" />
        </mxCell>
        <mxCell id="ynz61ijYo75MXlib09TW-18" style="edgeStyle=orthogonalEdgeStyle;rounded=0;orthogonalLoop=1;jettySize=auto;html=1;exitX=0.5;exitY=1;exitDx=0;exitDy=0;entryX=0.5;entryY=0;entryDx=0;entryDy=0;endArrow=ERmany;endFill=0;" edge="1" parent="1" source="ynz61ijYo75MXlib09TW-4" target="ynz61ijYo75MXlib09TW-5">
          <mxGeometry relative="1" as="geometry" />
        </mxCell>
        <mxCell id="ynz61ijYo75MXlib09TW-4" value="&lt;font style=&quot;font-size: 18px;&quot;&gt;CommentList&lt;/font&gt;" style="rounded=0;whiteSpace=wrap;html=1;" vertex="1" parent="1">
          <mxGeometry x="380" y="280" width="170" height="50" as="geometry" />
        </mxCell>
        <mxCell id="ynz61ijYo75MXlib09TW-5" value="&lt;font style=&quot;font-size: 18px;&quot;&gt;Comment&lt;/font&gt;" style="rounded=0;whiteSpace=wrap;html=1;" vertex="1" parent="1">
          <mxGeometry x="380" y="370" width="170" height="50" as="geometry" />
        </mxCell>
        <mxCell id="ynz61ijYo75MXlib09TW-6" value="&lt;font style=&quot;font-size: 18px;&quot;&gt;CreatePost&lt;/font&gt;" style="rounded=0;whiteSpace=wrap;html=1;" vertex="1" parent="1">
          <mxGeometry x="650" y="20" width="170" height="50" as="geometry" />
        </mxCell>
        <mxCell id="ynz61ijYo75MXlib09TW-7" value="&lt;font style=&quot;font-size: 18px;&quot;&gt;CreateComment&lt;/font&gt;" style="rounded=0;whiteSpace=wrap;html=1;" vertex="1" parent="1">
          <mxGeometry x="180" y="280" width="170" height="50" as="geometry" />
        </mxCell>
        <mxCell id="ynz61ijYo75MXlib09TW-20" style="edgeStyle=orthogonalEdgeStyle;rounded=0;orthogonalLoop=1;jettySize=auto;html=1;exitX=0.5;exitY=1;exitDx=0;exitDy=0;entryX=0.5;entryY=0;entryDx=0;entryDy=0;" edge="1" parent="1" source="ynz61ijYo75MXlib09TW-8" target="ynz61ijYo75MXlib09TW-9">
          <mxGeometry relative="1" as="geometry" />
        </mxCell>
        <mxCell id="ynz61ijYo75MXlib09TW-8" value="&lt;font style=&quot;font-size: 18px;&quot;&gt;Profile&lt;/font&gt;" style="rounded=0;whiteSpace=wrap;html=1;" vertex="1" parent="1">
          <mxGeometry x="-50" y="-100" width="170" height="50" as="geometry" />
        </mxCell>
        <mxCell id="ynz61ijYo75MXlib09TW-9" value="&lt;font style=&quot;font-size: 18px;&quot;&gt;ProfileForm&lt;/font&gt;" style="rounded=0;whiteSpace=wrap;html=1;" vertex="1" parent="1">
          <mxGeometry x="-50" y="-30" width="170" height="50" as="geometry" />
        </mxCell>
        <mxCell id="ynz61ijYo75MXlib09TW-10" value="&lt;font style=&quot;font-size: 18px;&quot;&gt;SideBar&lt;/font&gt;" style="rounded=0;whiteSpace=wrap;html=1;" vertex="1" parent="1">
          <mxGeometry x="140" y="-100" width="170" height="50" as="geometry" />
        </mxCell>
        <mxCell id="ynz61ijYo75MXlib09TW-13" style="edgeStyle=orthogonalEdgeStyle;rounded=0;orthogonalLoop=1;jettySize=auto;html=1;exitX=0.5;exitY=1;exitDx=0;exitDy=0;" edge="1" parent="1" source="ynz61ijYo75MXlib09TW-11" target="ynz61ijYo75MXlib09TW-12">
          <mxGeometry relative="1" as="geometry" />
        </mxCell>
        <mxCell id="ynz61ijYo75MXlib09TW-14" style="edgeStyle=orthogonalEdgeStyle;rounded=0;orthogonalLoop=1;jettySize=auto;html=1;exitX=0.5;exitY=1;exitDx=0;exitDy=0;" edge="1" parent="1" source="ynz61ijYo75MXlib09TW-11" target="ynz61ijYo75MXlib09TW-6">
          <mxGeometry relative="1" as="geometry" />
        </mxCell>
        <mxCell id="ynz61ijYo75MXlib09TW-11" value="&lt;font style=&quot;font-size: 18px;&quot;&gt;PostFeed&lt;/font&gt;" style="rounded=0;whiteSpace=wrap;html=1;" vertex="1" parent="1">
          <mxGeometry x="520" y="-100" width="170" height="50" as="geometry" />
        </mxCell>
        <mxCell id="ynz61ijYo75MXlib09TW-15" style="edgeStyle=orthogonalEdgeStyle;rounded=0;orthogonalLoop=1;jettySize=auto;html=1;exitX=0.5;exitY=1;exitDx=0;exitDy=0;endArrow=ERmany;endFill=0;" edge="1" parent="1" source="ynz61ijYo75MXlib09TW-12" target="ynz61ijYo75MXlib09TW-2">
          <mxGeometry relative="1" as="geometry" />
        </mxCell>
        <mxCell id="ynz61ijYo75MXlib09TW-12" value="&lt;font style=&quot;font-size: 18px;&quot;&gt;PostList&lt;/font&gt;" style="rounded=0;whiteSpace=wrap;html=1;" vertex="1" parent="1">
          <mxGeometry x="380" y="20" width="170" height="50" as="geometry" />
        </mxCell>
      </root>
    </mxGraphModel>
  </diagram>
</mxfile>
